<svg width="40" height="40" viewBox="0 0 40 40" fill="none" xmlns="http://www.w3.org/2000/svg" role="img" aria-label="Onestop">
<circle cx="20" cy="20" r="20" fill="#EB6753"/>
<path d="M20 8L10 13.2188V26.7812L20 32L30 26.7812V13.2188L20 8ZM14.5269 14.9589L20 9.0494L25.1978 14.9589H14.5269ZM25.2895 15.5113L20 24.0729L14.4351 15.5113H25.2895ZM19.419 24.2387L10.9478 22.9961L13.9455 15.8429L19.419 24.2387ZM25.7789 15.8705L29.0522 23.0237L20.581 24.2663L25.7789 15.8705ZM25.8706 14.876L20.7954 9.0494L29.0522 13.357L25.8706 14.876ZM13.823 14.876L10.9478 13.357L19.1435 9.077L13.823 14.876ZM13.5171 15.3456L10.6113 22.2504V13.8265L13.5171 15.3456ZM19.6943 24.8461V28.076L11.1007 23.6021L19.6943 24.8461ZM20.3057 24.8461L28.8993 23.6021L20.3057 28.076V24.8461ZM26.2076 15.3456L29.4198 13.7989V22.3333L26.2076 15.3456Z" fill="#FDFDFD"/>
<text x="20" y="30" fill="#FBFCFA" font-family="Inter, Arial, Helvetica, sans-serif" font-size="8" font-weight="800" text-anchor="middle" letter-spacing="0">OS</text>
</svg>
