<svg width="178" height="52" viewBox="0 0 178 52" fill="none" xmlns="http://www.w3.org/2000/svg" role="img" aria-label="Onestop">
<circle cx="26" cy="26" r="25.5" fill="#EB6753"/>
<path d="M26 10.8438L11.4749 18.423V33.5815L26 41.1608L40.5251 33.5815V18.423L26 10.8438ZM18.0489 20.9494L26 12.3676L33.5513 20.9494H18.0489ZM33.6846 21.7515L26 34.183L17.9157 21.7515H33.6846ZM25.156 34.4237L12.8519 32.6191L17.205 22.2327L25.156 34.4237ZM34.3953 22.2728L39.1481 32.6592L26.844 34.4638L34.3953 22.2728ZM34.5285 20.8291L27.1549 12.3676L39.1481 18.6235L34.5285 20.8291ZM17.0273 20.8291L12.8519 18.6235L24.7563 12.4077L17.0273 20.8291ZM16.5831 21.5108L12.3633 31.5363V19.3052L16.5831 21.5108ZM25.5558 35.3059V39.9978L13.074 33.5013L25.5558 35.3059ZM26.4442 35.3059L38.926 33.5013L26.4442 39.9978V35.3059ZM35.0171 21.5108L39.6812 19.2651V31.6566L35.0171 21.5108Z" fill="#FDFDFD"/>
<text x="64" y="34" fill="#F8F2F1" font-family="Inter, Arial, Helvetica, sans-serif" font-size="24" font-weight="800" letter-spacing="0">Onestop</text>
</svg>
